<svg xmlns="http://www.w3.org/2000/svg" aria-hidden="true" style="position:absolute;width:0;height:0;overflow:hidden"><defs>
<symbol id="wind" width="32" height="32" viewBox="0 0 32 32" fill="none">
<g clip-path="url(#clip0_12138_437)">
<path d="M25 4C23.6739 4 22.4021 4.52679 21.4645 5.46447C20.5268 6.40215 20 7.67392 20 9C20 9.26522 19.8946 9.51957 19.7071 9.70711C19.5196 9.89465 19.2652 10 19 10C18.7348 10 18.4804 9.89465 18.2929 9.70711C18.1054 9.51957 18 9.26522 18 9C18 7.61553 18.4105 6.26216 19.1797 5.11101C19.9489 3.95987 21.0421 3.06266 22.3212 2.53285C23.6003 2.00303 25.0078 1.86441 26.3656 2.13451C27.7235 2.4046 28.9708 3.07129 29.9497 4.05026C30.9287 5.02922 31.5954 6.2765 31.8655 7.63437C32.1356 8.99224 31.997 10.3997 31.4672 11.6788C30.9373 12.9579 30.0401 14.0511 28.889 14.8203C27.7378 15.5895 26.3845 16 25 16H1C0.734784 16 0.48043 15.8946 0.292893 15.7071C0.105357 15.5196 0 15.2652 0 15C0 14.7348 0.105357 14.4804 0.292893 14.2929C0.48043 14.1054 0.734784 14 1 14H25C26.3261 14 27.5979 13.4732 28.5355 12.5355C29.4732 11.5979 30 10.3261 30 9C30 7.67392 29.4732 6.40215 28.5355 5.46447C27.5979 4.52679 26.3261 4 25 4ZM11 6C10.4696 6 9.96086 6.21072 9.58579 6.58579C9.21071 6.96086 9 7.46957 9 8C9 8.26522 8.89464 8.51957 8.70711 8.70711C8.51957 8.89465 8.26522 9 8 9C7.73478 9 7.48043 8.89465 7.29289 8.70711C7.10536 8.51957 7 8.26522 7 8C7 7.20888 7.2346 6.43552 7.67412 5.77772C8.11365 5.11993 8.73836 4.60724 9.46927 4.30449C10.2002 4.00173 11.0044 3.92252 11.7804 4.07686C12.5563 4.2312 13.269 4.61217 13.8284 5.17158C14.3878 5.73099 14.7688 6.44372 14.9231 7.21964C15.0775 7.99557 14.9983 8.79983 14.6955 9.53074C14.3928 10.2616 13.8801 10.8864 13.2223 11.3259C12.5645 11.7654 11.7911 12 11 12H1C0.734784 12 0.48043 11.8946 0.292893 11.7071C0.105357 11.5196 0 11.2652 0 11C0 10.7348 0.105357 10.4804 0.292893 10.2929C0.48043 10.1054 0.734784 10 1 10H11C11.5304 10 12.0391 9.78929 12.4142 9.41422C12.7893 9.03914 13 8.53044 13 8C13 7.46957 12.7893 6.96086 12.4142 6.58579C12.0391 6.21072 11.5304 6 11 6ZM0 19C0 18.7348 0.105357 18.4804 0.292893 18.2929C0.48043 18.1054 0.734784 18 1 18H21.084C22.2707 18 23.4307 18.3519 24.4174 19.0112C25.4041 19.6705 26.1732 20.6075 26.6273 21.7039C27.0814 22.8003 27.2002 24.0067 26.9687 25.1705C26.7372 26.3344 26.1658 27.4035 25.3266 28.2426C24.4875 29.0818 23.4184 29.6532 22.2545 29.8847C21.0907 30.1162 19.8843 29.9974 18.7879 29.5433C17.6915 29.0892 16.7545 28.3201 16.0952 27.3334C15.4359 26.3467 15.084 25.1867 15.084 24C15.084 23.7348 15.1894 23.4804 15.3769 23.2929C15.5644 23.1054 15.8188 23 16.084 23C16.3492 23 16.6036 23.1054 16.7911 23.2929C16.9786 23.4804 17.084 23.7348 17.084 24C17.084 24.7911 17.3186 25.5645 17.7581 26.2223C18.1976 26.8801 18.8224 27.3928 19.5533 27.6955C20.2842 27.9983 21.0884 28.0775 21.8644 27.9231C22.6403 27.7688 23.353 27.3878 23.9124 26.8284C24.4718 26.269 24.8528 25.5563 25.0071 24.7804C25.1615 24.0044 25.0823 23.2002 24.7795 22.4693C24.4768 21.7384 23.9641 21.1137 23.3063 20.6741C22.6485 20.2346 21.8751 20 21.084 20H1C0.734784 20 0.48043 19.8946 0.292893 19.7071C0.105357 19.5196 0 19.2652 0 19Z" fill="#101828"/>
</g>
<defs>
<clipPath>
<rect width="32" height="32" fill="white"/>
</clipPath>
</defs>
</symbol>

<symbol id="tv" width="32" height="32" viewBox="0 0 32 32" fill="none">
<path d="M0 8C0 8 0 4 4 4H28C28 4 32 4 32 8V20C32 20 32 24 28 24H20C20 25.3333 20.1667 26.3333 20.5 27H22C22.2652 27 22.5196 27.1054 22.7071 27.2929C22.8946 27.4804 23 27.7348 23 28C23 28.2652 22.8946 28.5196 22.7071 28.7071C22.5196 28.8946 22.2652 29 22 29H10C9.73478 29 9.48043 28.8946 9.29289 28.7071C9.10536 28.5196 9 28.2652 9 28C9 27.7348 9.10536 27.4804 9.29289 27.2929C9.48043 27.1054 9.73478 27 10 27H11.5C11.8333 26.3333 12 25.3333 12 24H4C4 24 0 24 0 20V8ZM2.796 6.29C2.57644 6.44309 2.4012 6.65145 2.288 6.894C2.11952 7.24697 2.02168 7.62948 2 8.02V20C2 20.65 2.156 21.004 2.29 21.204C2.43 21.412 2.63133 21.5813 2.894 21.712C3.23168 21.8736 3.59663 21.9706 3.97 21.998L4.02 22H28C28.65 22 29.004 21.844 29.204 21.71C29.4236 21.5569 29.5988 21.3486 29.712 21.106C29.8736 20.7683 29.9706 20.4034 29.998 20.03L30 19.98V8C30 7.35 29.844 6.996 29.71 6.796C29.5569 6.57644 29.3486 6.4012 29.106 6.288C28.753 6.11952 28.3705 6.02168 27.98 6H4C3.35 6 2.996 6.156 2.796 6.29Z" fill="#101828"/>
</symbol>

<symbol id="kwadrat-tri" width="32" height="32" viewBox="0 0 32 32" fill="none">
<g clip-path="url(#clip0_12138_451)">
<path d="M12 2H2V30H12V2ZM30 2H20V12H30V2ZM30 20V30H20V20H30ZM0 2C0 1.46957 0.210714 0.960859 0.585786 0.585786C0.960859 0.210714 1.46957 0 2 0L12 0C12.5304 0 13.0391 0.210714 13.4142 0.585786C13.7893 0.960859 14 1.46957 14 2V30C14 30.5304 13.7893 31.0391 13.4142 31.4142C13.0391 31.7893 12.5304 32 12 32H2C1.46957 32 0.960859 31.7893 0.585786 31.4142C0.210714 31.0391 0 30.5304 0 30V2ZM18 2C18 1.46957 18.2107 0.960859 18.5858 0.585786C18.9609 0.210714 19.4696 0 20 0L30 0C30.5304 0 31.0391 0.210714 31.4142 0.585786C31.7893 0.960859 32 1.46957 32 2V12C32 12.5304 31.7893 13.0391 31.4142 13.4142C31.0391 13.7893 30.5304 14 30 14H20C19.4696 14 18.9609 13.7893 18.5858 13.4142C18.2107 13.0391 18 12.5304 18 12V2ZM20 18C19.4696 18 18.9609 18.2107 18.5858 18.5858C18.2107 18.9609 18 19.4696 18 20V30C18 30.5304 18.2107 31.0391 18.5858 31.4142C18.9609 31.7893 19.4696 32 20 32H30C30.5304 32 31.0391 31.7893 31.4142 31.4142C31.7893 31.0391 32 30.5304 32 30V20C32 19.4696 31.7893 18.9609 31.4142 18.5858C31.0391 18.2107 30.5304 18 30 18H20Z" fill="#101828"/>
</g>
<defs>
<clipPath>
<rect width="32" height="32" fill="white"/>
</clipPath>
</defs>
</symbol>

<symbol id="kwadrat-shest" width="32" height="32" viewBox="0 0 32 32" fill="none">
<path d="M8 4V8H4V4H8ZM10 28V24C10 23.4696 9.78929 22.9609 9.41421 22.5858C9.03914 22.2107 8.53043 22 8 22H4C3.46957 22 2.96086 22.2107 2.58579 22.5858C2.21071 22.9609 2 23.4696 2 24V28C2 28.5304 2.21071 29.0391 2.58579 29.4142C2.96086 29.7893 3.46957 30 4 30H8C8.53043 30 9.03914 29.7893 9.41421 29.4142C9.78929 29.0391 10 28.5304 10 28ZM10 18V14C10 13.4696 9.78929 12.9609 9.41421 12.5858C9.03914 12.2107 8.53043 12 8 12H4C3.46957 12 2.96086 12.2107 2.58579 12.5858C2.21071 12.9609 2 13.4696 2 14V18C2 18.5304 2.21071 19.0391 2.58579 19.4142C2.96086 19.7893 3.46957 20 4 20H8C8.53043 20 9.03914 19.7893 9.41421 19.4142C9.78929 19.0391 10 18.5304 10 18ZM10 8V4C10 3.46957 9.78929 2.96086 9.41421 2.58579C9.03914 2.21071 8.53043 2 8 2H4C3.46957 2 2.96086 2.21071 2.58579 2.58579C2.21071 2.96086 2 3.46957 2 4V8C2 8.53043 2.21071 9.03914 2.58579 9.41421C2.96086 9.78929 3.46957 10 4 10H8C8.53043 10 9.03914 9.78929 9.41421 9.41421C9.78929 9.03914 10 8.53043 10 8ZM20 28V24C20 23.4696 19.7893 22.9609 19.4142 22.5858C19.0391 22.2107 18.5304 22 18 22H14C13.4696 22 12.9609 22.2107 12.5858 22.5858C12.2107 22.9609 12 23.4696 12 24V28C12 28.5304 12.2107 29.0391 12.5858 29.4142C12.9609 29.7893 13.4696 30 14 30H18C18.5304 30 19.0391 29.7893 19.4142 29.4142C19.7893 29.0391 20 28.5304 20 28ZM20 18V14C20 13.4696 19.7893 12.9609 19.4142 12.5858C19.0391 12.2107 18.5304 12 18 12H14C13.4696 12 12.9609 12.2107 12.5858 12.5858C12.2107 12.9609 12 13.4696 12 14V18C12 18.5304 12.2107 19.0391 12.5858 19.4142C12.9609 19.7893 13.4696 20 14 20H18C18.5304 20 19.0391 19.7893 19.4142 19.4142C19.7893 19.0391 20 18.5304 20 18ZM20 8V4C20 3.46957 19.7893 2.96086 19.4142 2.58579C19.0391 2.21071 18.5304 2 18 2H14C13.4696 2 12.9609 2.21071 12.5858 2.58579C12.2107 2.96086 12 3.46957 12 4V8C12 8.53043 12.2107 9.03914 12.5858 9.41421C12.9609 9.78929 13.4696 10 14 10H18C18.5304 10 19.0391 9.78929 19.4142 9.41421C19.7893 9.03914 20 8.53043 20 8ZM18 4V8H14V4H18ZM28 4V8H24V4H28ZM8 14V18H4V14H8ZM18 14V18H14V14H18ZM28 14H24V18H28V14ZM8 24V28H4V24H8ZM18 24V28H14V24H18ZM28 24V28H24V24H28ZM24 2C23.4696 2 22.9609 2.21071 22.5858 2.58579C22.2107 2.96086 22 3.46957 22 4V8C22 8.53043 22.2107 9.03914 22.5858 9.41421C22.9609 9.78929 23.4696 10 24 10H28C28.5304 10 29.0391 9.78929 29.4142 9.41421C29.7893 9.03914 30 8.53043 30 8V4C30 3.46957 29.7893 2.96086 29.4142 2.58579C29.0391 2.21071 28.5304 2 28 2H24ZM22 14C22 13.4696 22.2107 12.9609 22.5858 12.5858C22.9609 12.2107 23.4696 12 24 12H28C28.5304 12 29.0391 12.2107 29.4142 12.5858C29.7893 12.9609 30 13.4696 30 14V18C30 18.5304 29.7893 19.0391 29.4142 19.4142C29.0391 19.7893 28.5304 20 28 20H24C23.4696 20 22.9609 19.7893 22.5858 19.4142C22.2107 19.0391 22 18.5304 22 18V14ZM24 22C23.4696 22 22.9609 22.2107 22.5858 22.5858C22.2107 22.9609 22 23.4696 22 24V28C22 28.5304 22.2107 29.0391 22.5858 29.4142C22.9609 29.7893 23.4696 30 24 30H28C28.5304 30 29.0391 29.7893 29.4142 29.4142C29.7893 29.0391 30 28.5304 30 28V24C30 23.4696 29.7893 22.9609 29.4142 22.5858C29.0391 22.2107 28.5304 22 28 22H24Z" fill="#101828"/>
</symbol>

<symbol id="kwadrat-chetyre" width="32" height="32" viewBox="0 0 32 32" fill="none">
<path d="M2 5C2 4.20435 2.31607 3.44129 2.87868 2.87868C3.44129 2.31607 4.20435 2 5 2H11C11.7956 2 12.5587 2.31607 13.1213 2.87868C13.6839 3.44129 14 4.20435 14 5V11C14 11.7956 13.6839 12.5587 13.1213 13.1213C12.5587 13.6839 11.7956 14 11 14H5C4.20435 14 3.44129 13.6839 2.87868 13.1213C2.31607 12.5587 2 11.7956 2 11V5ZM5 4C4.73478 4 4.48043 4.10536 4.29289 4.29289C4.10536 4.48043 4 4.73478 4 5V11C4 11.2652 4.10536 11.5196 4.29289 11.7071C4.48043 11.8946 4.73478 12 5 12H11C11.2652 12 11.5196 11.8946 11.7071 11.7071C11.8946 11.5196 12 11.2652 12 11V5C12 4.73478 11.8946 4.48043 11.7071 4.29289C11.5196 4.10536 11.2652 4 11 4H5ZM18 5C18 4.20435 18.3161 3.44129 18.8787 2.87868C19.4413 2.31607 20.2044 2 21 2H27C27.7956 2 28.5587 2.31607 29.1213 2.87868C29.6839 3.44129 30 4.20435 30 5V11C30 11.7956 29.6839 12.5587 29.1213 13.1213C28.5587 13.6839 27.7956 14 27 14H21C20.2044 14 19.4413 13.6839 18.8787 13.1213C18.3161 12.5587 18 11.7956 18 11V5ZM21 4C20.7348 4 20.4804 4.10536 20.2929 4.29289C20.1054 4.48043 20 4.73478 20 5V11C20 11.2652 20.1054 11.5196 20.2929 11.7071C20.4804 11.8946 20.7348 12 21 12H27C27.2652 12 27.5196 11.8946 27.7071 11.7071C27.8946 11.5196 28 11.2652 28 11V5C28 4.73478 27.8946 4.48043 27.7071 4.29289C27.5196 4.10536 27.2652 4 27 4H21ZM2 21C2 20.2044 2.31607 19.4413 2.87868 18.8787C3.44129 18.3161 4.20435 18 5 18H11C11.7956 18 12.5587 18.3161 13.1213 18.8787C13.6839 19.4413 14 20.2044 14 21V27C14 27.7956 13.6839 28.5587 13.1213 29.1213C12.5587 29.6839 11.7956 30 11 30H5C4.20435 30 3.44129 29.6839 2.87868 29.1213C2.31607 28.5587 2 27.7956 2 27V21ZM5 20C4.73478 20 4.48043 20.1054 4.29289 20.2929C4.10536 20.4804 4 20.7348 4 21V27C4 27.2652 4.10536 27.5196 4.29289 27.7071C4.48043 27.8946 4.73478 28 5 28H11C11.2652 28 11.5196 27.8946 11.7071 27.7071C11.8946 27.5196 12 27.2652 12 27V21C12 20.7348 11.8946 20.4804 11.7071 20.2929C11.5196 20.1054 11.2652 20 11 20H5ZM18 21C18 20.2044 18.3161 19.4413 18.8787 18.8787C19.4413 18.3161 20.2044 18 21 18H27C27.7956 18 28.5587 18.3161 29.1213 18.8787C29.6839 19.4413 30 20.2044 30 21V27C30 27.7956 29.6839 28.5587 29.1213 29.1213C28.5587 29.6839 27.7956 30 27 30H21C20.2044 30 19.4413 29.6839 18.8787 29.1213C18.3161 28.5587 18 27.7956 18 27V21ZM21 20C20.7348 20 20.4804 20.1054 20.2929 20.2929C20.1054 20.4804 20 20.7348 20 21V27C20 27.2652 20.1054 27.5196 20.2929 27.7071C20.4804 27.8946 20.7348 28 21 28H27C27.2652 28 27.5196 27.8946 27.7071 27.7071C27.8946 27.5196 28 27.2652 28 27V21C28 20.7348 27.8946 20.4804 27.7071 20.2929C27.5196 20.1054 27.2652 20 27 20H21Z" fill="#101828"/>
</symbol>

<symbol id="kaplia" width="32" height="32" viewBox="0 0 32 32" fill="none">
<path fill-rule="evenodd" clip-rule="evenodd" d="M14.42 1.6C15.38 0.59 16 0 16 0C16.2187 0.725333 16.466 1.41733 16.742 2.076C18.366 5.968 20.888 8.776 23.136 11.276C25.756 14.192 28 16.69 28 20C28 23.1826 26.7357 26.2348 24.4853 28.4853C22.2348 30.7357 19.1826 32 16 32C12.8174 32 9.76515 30.7357 7.51472 28.4853C5.26428 26.2348 4 23.1826 4 20C4 13.336 11.16 5.034 14.42 1.6ZM15.246 3.642C13.9611 5.03141 12.7405 6.47893 11.588 7.98C10.136 9.88 8.716 11.996 7.668 14.12C6.608 16.266 6 18.276 6 20C6 22.6522 7.05357 25.1957 8.92893 27.0711C10.8043 28.9464 13.3478 30 16 30C18.6522 30 21.1957 28.9464 23.0711 27.0711C24.9464 25.1957 26 22.6522 26 20C26 17.598 24.408 15.686 21.638 12.6L21.578 12.536C19.5 10.22 17 7.442 15.246 3.642Z" fill="#101828"/>
<path fill-rule="evenodd" clip-rule="evenodd" d="M9.106 15.552C10.746 12.27 12.54 10.046 13.292 9.29199L14.708 10.708C14.128 11.288 12.452 13.33 10.894 16.448L9.106 15.552Z" fill="#101828"/>
</symbol>

<symbol id="diagram" width="32" height="32" viewBox="0 0 32 32" fill="none">
<path fill-rule="evenodd" clip-rule="evenodd" d="M12 7C12 6.20435 12.3161 5.44129 12.8787 4.87868C13.4413 4.31607 14.2044 4 15 4H17C17.7956 4 18.5587 4.31607 19.1213 4.87868C19.6839 5.44129 20 6.20435 20 7V9C20 9.79565 19.6839 10.5587 19.1213 11.1213C18.5587 11.6839 17.7956 12 17 12V14H28C28.2652 14 28.5196 14.1054 28.7071 14.2929C28.8946 14.4804 29 14.7348 29 15V17C29 17.2652 28.8946 17.5196 28.7071 17.7071C28.5196 17.8946 28.2652 18 28 18C27.7348 18 27.4804 17.8946 27.2929 17.7071C27.1054 17.5196 27 17.2652 27 17V16H17V17C17 17.2652 16.8946 17.5196 16.7071 17.7071C16.5196 17.8946 16.2652 18 16 18C15.7348 18 15.4804 17.8946 15.2929 17.7071C15.1054 17.5196 15 17.2652 15 17V16H5V17C5 17.2652 4.89464 17.5196 4.70711 17.7071C4.51957 17.8946 4.26522 18 4 18C3.73478 18 3.48043 17.8946 3.29289 17.7071C3.10536 17.5196 3 17.2652 3 17V15C3 14.7348 3.10536 14.4804 3.29289 14.2929C3.48043 14.1054 3.73478 14 4 14H15V12C14.2044 12 13.4413 11.6839 12.8787 11.1213C12.3161 10.5587 12 9.79565 12 9V7ZM17 10C17.2652 10 17.5196 9.89464 17.7071 9.70711C17.8946 9.51957 18 9.26522 18 9V7C18 6.73478 17.8946 6.48043 17.7071 6.29289C17.5196 6.10536 17.2652 6 17 6H15C14.7348 6 14.4804 6.10536 14.2929 6.29289C14.1054 6.48043 14 6.73478 14 7V9C14 9.26522 14.1054 9.51957 14.2929 9.70711C14.4804 9.89464 14.7348 10 15 10H17ZM0 23C0 22.2044 0.31607 21.4413 0.87868 20.8787C1.44129 20.3161 2.20435 20 3 20H5C5.79565 20 6.55871 20.3161 7.12132 20.8787C7.68393 21.4413 8 22.2044 8 23V25C8 25.7956 7.68393 26.5587 7.12132 27.1213C6.55871 27.6839 5.79565 28 5 28H3C2.20435 28 1.44129 27.6839 0.87868 27.1213C0.31607 26.5587 0 25.7956 0 25L0 23ZM3 22C2.73478 22 2.48043 22.1054 2.29289 22.2929C2.10536 22.4804 2 22.7348 2 23V25C2 25.2652 2.10536 25.5196 2.29289 25.7071C2.48043 25.8946 2.73478 26 3 26H5C5.26522 26 5.51957 25.8946 5.70711 25.7071C5.89464 25.5196 6 25.2652 6 25V23C6 22.7348 5.89464 22.4804 5.70711 22.2929C5.51957 22.1054 5.26522 22 5 22H3ZM12 23C12 22.2044 12.3161 21.4413 12.8787 20.8787C13.4413 20.3161 14.2044 20 15 20H17C17.7956 20 18.5587 20.3161 19.1213 20.8787C19.6839 21.4413 20 22.2044 20 23V25C20 25.7956 19.6839 26.5587 19.1213 27.1213C18.5587 27.6839 17.7956 28 17 28H15C14.2044 28 13.4413 27.6839 12.8787 27.1213C12.3161 26.5587 12 25.7956 12 25V23ZM15 22C14.7348 22 14.4804 22.1054 14.2929 22.2929C14.1054 22.4804 14 22.7348 14 23V25C14 25.2652 14.1054 25.5196 14.2929 25.7071C14.4804 25.8946 14.7348 26 15 26H17C17.2652 26 17.5196 25.8946 17.7071 25.7071C17.8946 25.5196 18 25.2652 18 25V23C18 22.7348 17.8946 22.4804 17.7071 22.2929C17.5196 22.1054 17.2652 22 17 22H15ZM24 23C24 22.2044 24.3161 21.4413 24.8787 20.8787C25.4413 20.3161 26.2044 20 27 20H29C29.7956 20 30.5587 20.3161 31.1213 20.8787C31.6839 21.4413 32 22.2044 32 23V25C32 25.7956 31.6839 26.5587 31.1213 27.1213C30.5587 27.6839 29.7956 28 29 28H27C26.2044 28 25.4413 27.6839 24.8787 27.1213C24.3161 26.5587 24 25.7956 24 25V23ZM27 22C26.7348 22 26.4804 22.1054 26.2929 22.2929C26.1054 22.4804 26 22.7348 26 23V25C26 25.2652 26.1054 25.5196 26.2929 25.7071C26.4804 25.8946 26.7348 26 27 26H29C29.2652 26 29.5196 25.8946 29.7071 25.7071C29.8946 25.5196 30 25.2652 30 25V23C30 22.7348 29.8946 22.4804 29.7071 22.2929C29.5196 22.1054 29.2652 22 29 22H27Z" fill="#101828"/>
</symbol>

<symbol id="cup-hot" width="32" height="32" viewBox="0 0 32 32" fill="none">
<g clip-path="url(#clip0_12138_439)">
<path fill-rule="evenodd" clip-rule="evenodd" d="M1 12C0.85037 12.0001 0.702657 12.0337 0.567753 12.0984C0.432849 12.1632 0.314192 12.2574 0.22053 12.3741C0.126868 12.4907 0.0605872 12.627 0.0265741 12.7727C-0.00743894 12.9184 -0.00831744 13.0699 0.0240034 13.216L3.328 28.084C3.57463 29.1945 4.19255 30.1877 5.07976 30.8997C5.96698 31.6116 7.07045 31.9998 8.208 32H19.792C20.9296 31.9998 22.033 31.6116 22.9202 30.8997C23.8075 30.1877 24.4254 29.1945 24.672 28.084L24.934 26.904C26.4638 27.1901 28.045 26.8706 29.3437 26.0129C30.6424 25.1552 31.557 23.8264 31.8944 22.307C32.2318 20.7876 31.9656 19.1966 31.1521 17.8698C30.3385 16.543 29.0412 15.5843 27.534 15.196L27.976 13.216C28.0083 13.0699 28.0074 12.9184 27.9734 12.7727C27.9394 12.627 27.8731 12.4907 27.7795 12.3741C27.6858 12.2574 27.5672 12.1632 27.4323 12.0984C27.2973 12.0337 27.1496 12.0001 27 12H1ZM26 25C25.7883 25.0001 25.577 24.9834 25.368 24.95L27.102 17.154C28.027 17.4219 28.8244 18.0144 29.3478 18.8227C29.8713 19.631 30.0857 20.601 29.9518 21.5546C29.8178 22.5083 29.3445 23.3817 28.6186 24.0145C27.8927 24.6474 26.963 24.9973 26 25ZM5.28 27.65L2.246 14H25.754L22.72 27.65C22.5721 28.3164 22.2014 28.9124 21.6691 29.3396C21.1367 29.7669 20.4746 29.9998 19.792 30H8.208C7.52542 29.9998 6.86329 29.7669 6.33095 29.3396C5.79862 28.9124 5.4279 28.3164 5.28 27.65Z" fill="#101828"/>
<path d="M8.8 1.6L8.794 1.608L8.766 1.646C8.62048 1.84624 8.48433 2.05313 8.358 2.266C8.25068 2.43664 8.15641 2.61515 8.076 2.8C8.024 2.92 8.008 2.984 8.002 3.006V3.014C8.02506 3.1908 8.08724 3.36024 8.184 3.51C8.334 3.776 8.54 4.054 8.8 4.4L8.82 4.424C9.056 4.74 9.34 5.118 9.56 5.51C9.784 5.91 10 6.42 10 7C10 7.376 9.87 7.736 9.762 7.988C9.6464 8.25615 9.51137 8.51551 9.358 8.764C9.2011 9.02626 9.03225 9.2812 8.852 9.528L8.816 9.578L8.806 9.594L8.802 9.598C8.64314 9.81044 8.40639 9.95106 8.14384 9.98895C7.88129 10.0268 7.61444 9.95886 7.402 9.8C7.18956 9.64113 7.04893 9.40438 7.01105 9.14183C6.97317 8.87928 7.04114 8.61244 7.2 8.4L7.206 8.392L7.234 8.354C7.37952 8.15375 7.51567 7.94687 7.642 7.734C7.74932 7.56336 7.84359 7.38485 7.924 7.2C7.976 7.08 7.992 7.016 7.998 6.994C7.97671 6.81459 7.91517 6.64231 7.818 6.49C7.63235 6.17971 7.42588 5.88236 7.2 5.6L7.18 5.576C6.90979 5.23062 6.66259 4.86783 6.44 4.49C6.16759 4.03945 6.01604 3.52625 6 3C6 2.624 6.13 2.264 6.238 2.012C6.356 1.736 6.506 1.464 6.642 1.236C6.80088 0.974982 6.96967 0.72013 7.148 0.471998L7.198 0.401998C7.35686 0.18956 7.59361 0.0489314 7.85616 0.0110491C8.11872 -0.0268333 8.38556 0.0411339 8.598 0.199999C8.81044 0.358863 8.95107 0.595612 8.98895 0.858163C9.02683 1.12071 8.95886 1.38756 8.8 1.6ZM14.8 1.6L14.794 1.608L14.766 1.646C14.6205 1.84624 14.4843 2.05313 14.358 2.266C14.2507 2.43664 14.1564 2.61515 14.076 2.8C14.024 2.92 14.008 2.984 14.002 3.006V3.014C14.0251 3.1908 14.0872 3.36024 14.184 3.51C14.334 3.776 14.54 4.054 14.8 4.4L14.82 4.424C15.056 4.74 15.34 5.118 15.56 5.51C15.784 5.91 16 6.42 16 7C16 7.376 15.87 7.736 15.762 7.988C15.6464 8.25615 15.5114 8.51551 15.358 8.764C15.2011 9.02626 15.0323 9.2812 14.852 9.528L14.816 9.578L14.806 9.594L14.802 9.598C14.6431 9.81044 14.4064 9.95106 14.1438 9.98895C13.8813 10.0268 13.6144 9.95886 13.402 9.8C13.1896 9.64113 13.0489 9.40438 13.0111 9.14183C12.9732 8.87928 13.0411 8.61244 13.2 8.4L13.206 8.392L13.234 8.354C13.3795 8.15375 13.5157 7.94687 13.642 7.734C13.7493 7.56336 13.8436 7.38485 13.924 7.2C13.976 7.08 13.992 7.016 13.998 6.994C13.9767 6.81459 13.9152 6.64231 13.818 6.49C13.6323 6.17971 13.4259 5.88236 13.2 5.6L13.18 5.576C12.9098 5.23062 12.6626 4.86783 12.44 4.49C12.1676 4.03945 12.016 3.52625 12 3C12 2.624 12.13 2.264 12.238 2.012C12.356 1.736 12.506 1.464 12.642 1.236C12.8009 0.974982 12.9697 0.72013 13.148 0.471998L13.198 0.401998C13.3569 0.18956 13.5936 0.0489314 13.8562 0.011049C14.1187 -0.0268333 14.3856 0.0411339 14.598 0.199999C14.8104 0.358863 14.9511 0.595612 14.9889 0.858163C15.0268 1.12071 14.9589 1.38756 14.8 1.6ZM20.8 1.6L20.794 1.608L20.766 1.646C20.6205 1.84624 20.4843 2.05313 20.358 2.266C20.2507 2.43664 20.1564 2.61515 20.076 2.8C20.024 2.92 20.008 2.984 20.002 3.006V3.014C20.0251 3.1908 20.0872 3.36024 20.184 3.51C20.334 3.776 20.54 4.054 20.8 4.4L20.82 4.424C21.056 4.74 21.34 5.118 21.56 5.51C21.784 5.91 22 6.42 22 7C22 7.376 21.87 7.736 21.762 7.988C21.6464 8.25615 21.5114 8.51551 21.358 8.764C21.2017 9.02622 21.0336 9.28116 20.854 9.528L20.816 9.578L20.806 9.594L20.802 9.598C20.6431 9.81044 20.4064 9.95106 20.1438 9.98895C19.8813 10.0268 19.6144 9.95886 19.402 9.8C19.1896 9.64113 19.0489 9.40438 19.0111 9.14183C18.9732 8.87928 19.0411 8.61244 19.2 8.4L19.206 8.392L19.234 8.354C19.3795 8.15375 19.5157 7.94687 19.642 7.734C19.7493 7.56336 19.8436 7.38485 19.924 7.2C19.976 7.08 19.992 7.016 19.998 6.994C19.9767 6.81459 19.9152 6.64231 19.818 6.49C19.6324 6.17971 19.4259 5.88236 19.2 5.6L19.18 5.576C18.9098 5.23062 18.6626 4.86783 18.44 4.49C18.1676 4.03945 18.016 3.52625 18 3C18 2.624 18.13 2.264 18.238 2.012C18.356 1.736 18.506 1.464 18.642 1.236C18.8009 0.974982 18.9697 0.72013 19.148 0.471998L19.198 0.401998C19.3569 0.18956 19.5936 0.0489314 19.8562 0.011049C20.1187 -0.0268333 20.3856 0.0411339 20.598 0.199999C20.8104 0.358863 20.9511 0.595612 20.9889 0.858163C21.0268 1.12071 20.9589 1.38756 20.8 1.6Z" fill="#101828"/>
</g>
<defs>
<clipPath>
<rect width="32" height="32" fill="white"/>
</clipPath>
</defs>
</symbol><symbol id="icon-map" viewBox="0 0 32 32"><path d="M31.634.226A.991.991 0 0 1 32 1v28a.999.999 0 0 1-.804.98l-10 2a.995.995 0 0 1-.392 0L11 30.02l-9.804 1.96a.995.995 0 0 1-1.1-.552A1.003 1.003 0 0 1 0 31V3a.999.999 0 0 1 .804-.98l10-2a.995.995 0 0 1 .392 0L21 1.98 30.804.02a.996.996 0 0 1 .83.206zM20 3.82l-8-1.6v25.96l8 1.6V3.82zm2 25.96 8-1.6V2.22l-8 1.6v25.96zm-12-1.6V2.22l-8 1.6v25.96l8-1.6z"/></symbol><symbol id="icon-star" viewBox="0 0 32 32"><path d="M15.116 1.676a1 1 0 0 1 1.769 0l3.777 7.158c.145.274.408.466.714.519l7.975 1.38a1 1 0 0 1 .547 1.682l-5.641 5.804a1 1 0 0 0-.273.839l1.152 8.01a1 1 0 0 1-1.431 1.04l-7.263-3.571a.998.998 0 0 0-.882 0l-7.262 3.571a1 1 0 0 1-1.431-1.04l1.152-8.01a1 1 0 0 0-.273-.839l-5.64-5.804a1 1 0 0 1 .547-1.682l7.974-1.38a.998.998 0 0 0 .714-.519l3.776-7.158z"/></symbol><symbol id="icon-heart" viewBox="0 0 32 32"><path d="m16 13.139-1.788-3.578c-.444-.886-1.214-2.16-2.304-3.19C10.836 5.357 9.552 4.667 8 4.667c-3.352 0-6 2.652-6 5.84 0 2.422 1.108 4.132 3.736 6.74.674.668 1.442 1.39 2.292 2.186C10.244 21.513 13 24.101 16 27.561c3-3.46 5.756-6.048 7.972-8.128.85-.796 1.62-1.52 2.292-2.186C28.892 14.639 30 12.929 30 10.507c0-3.188-2.648-5.84-6-5.84-1.554 0-2.836.69-3.908 1.704-1.09 1.03-1.86 2.304-2.304 3.19L16 13.139zm.784 16.584a1.022 1.022 0 0 1-1.216.269 1.04 1.04 0 0 1-.352-.269c-3.202-3.804-6.1-6.524-8.486-8.762C2.6 17.083 0 14.645 0 10.507c0-4.33 3.58-7.84 8-7.84 3.2 0 5.438 2.1 6.808 4.016.52.73.916 1.432 1.192 1.984.346-.691.745-1.354 1.192-1.984C18.562 4.765 20.8 2.667 24 2.667c4.42 0 8 3.51 8 7.84 0 4.138-2.6 6.576-6.73 10.454-2.386 2.24-5.284 4.962-8.486 8.762z"/></symbol><symbol id="icon-block-big" viewBox="0 0 32 32"><path d="M8 4v4H4V4h4zm2 24v-4a2 2 0 0 0-2-2H4a2 2 0 0 0-2 2v4a2 2 0 0 0 2 2h4a2 2 0 0 0 2-2zm0-10v-4a2 2 0 0 0-2-2H4a2 2 0 0 0-2 2v4a2 2 0 0 0 2 2h4a2 2 0 0 0 2-2zm0-10V4a2 2 0 0 0-2-2H4a2 2 0 0 0-2 2v4a2 2 0 0 0 2 2h4a2 2 0 0 0 2-2zm10 20v-4a2 2 0 0 0-2-2h-4a2 2 0 0 0-2 2v4a2 2 0 0 0 2 2h4a2 2 0 0 0 2-2zm0-10v-4a2 2 0 0 0-2-2h-4a2 2 0 0 0-2 2v4a2 2 0 0 0 2 2h4a2 2 0 0 0 2-2zm0-10V4a2 2 0 0 0-2-2h-4a2 2 0 0 0-2 2v4a2 2 0 0 0 2 2h4a2 2 0 0 0 2-2zm-2-4v4h-4V4h4zm10 0v4h-4V4h4zM8 14v4H4v-4h4zm10 0v4h-4v-4h4zm10 0h-4v4h4v-4zM8 24v4H4v-4h4zm10 0v4h-4v-4h4zm10 0v4h-4v-4h4zM24 2a2 2 0 0 0-2 2v4a2 2 0 0 0 2 2h4a2 2 0 0 0 2-2V4a2 2 0 0 0-2-2h-4zm-2 12a2 2 0 0 1 2-2h4a2 2 0 0 1 2 2v4a2 2 0 0 1-2 2h-4a2 2 0 0 1-2-2v-4zm2 8a2 2 0 0 0-2 2v4a2 2 0 0 0 2 2h4a2 2 0 0 0 2-2v-4a2 2 0 0 0-2-2h-4z"/></symbol><symbol id="icon-block-medium" viewBox="0 0 32 32"><path d="M2 5a3.004 3.004 0 0 1 3-3h6a3.004 3.004 0 0 1 3 3v6a3.004 3.004 0 0 1-3 3H5a3.004 3.004 0 0 1-3-3V5zm3-1a.997.997 0 0 0-1 1v6a.997.997 0 0 0 1 1h6a.997.997 0 0 0 1-1V5a.997.997 0 0 0-1-1H5zm13 1a3.004 3.004 0 0 1 3-3h6a3.004 3.004 0 0 1 3 3v6a3.004 3.004 0 0 1-3 3h-6a3.004 3.004 0 0 1-3-3V5zm3-1a.997.997 0 0 0-1 1v6a.997.997 0 0 0 1 1h6a.997.997 0 0 0 1-1V5a.997.997 0 0 0-1-1h-6zM2 21a3.004 3.004 0 0 1 3-3h6a3.004 3.004 0 0 1 3 3v6a3.004 3.004 0 0 1-3 3H5a3.004 3.004 0 0 1-3-3v-6zm3-1a.997.997 0 0 0-1 1v6a.997.997 0 0 0 1 1h6a.997.997 0 0 0 1-1v-6a.997.997 0 0 0-1-1H5zm13 1a3.004 3.004 0 0 1 3-3h6a3.004 3.004 0 0 1 3 3v6a3.004 3.004 0 0 1-3 3h-6a3.004 3.004 0 0 1-3-3v-6zm3-1a.997.997 0 0 0-1 1v6a.997.997 0 0 0 1 1h6a.997.997 0 0 0 1-1v-6a.997.997 0 0 0-1-1h-6z"/></symbol><symbol id="icon-block-small" viewBox="0 0 32 32"><path d="M12 2H2v28h10V2zm18 0H20v10h10V2zm0 18v10H20V20h10zM0 2a2 2 0 0 1 2-2h10a2 2 0 0 1 2 2v28a2 2 0 0 1-2 2H2a2 2 0 0 1-2-2V2zm18 0a2 2 0 0 1 2-2h10a2 2 0 0 1 2 2v10a2 2 0 0 1-2 2H20a2 2 0 0 1-2-2V2zm2 16a2 2 0 0 0-2 2v10a2 2 0 0 0 2 2h10a2 2 0 0 0 2-2V20a2 2 0 0 0-2-2H20z"/></symbol><symbol id="icon-aqua" viewBox="0 0 32 32"><path d="M14.42 1.6C15.38.59 16 0 16 0c.219.725.466 1.417.742 2.076 1.624 3.892 4.146 6.7 6.394 9.2C25.756 14.192 28 16.69 28 20a12.003 12.003 0 0 1-12 12A11.998 11.998 0 0 1 4 20c0-6.664 7.16-14.966 10.42-18.4zm.826 2.042a62.033 62.033 0 0 0-3.658 4.338c-1.452 1.9-2.872 4.016-3.92 6.14C6.608 16.266 6 18.276 6 20a10.001 10.001 0 0 0 20 0c0-2.402-1.592-4.314-4.362-7.4l-.06-.064C19.5 10.22 17 7.442 15.246 3.642z"/><path d="M9.106 15.552c1.64-3.282 3.434-5.506 4.186-6.26l1.416 1.416c-.58.58-2.256 2.622-3.814 5.74l-1.788-.896z"/></symbol><symbol id="icon-diagram" viewBox="0 0 32 32"><path d="M12 7a3.004 3.004 0 0 1 3-3h2a3.004 3.004 0 0 1 3 3v2a3.004 3.004 0 0 1-3 3v2h11a.997.997 0 0 1 1 1v2a.997.997 0 0 1-1 1 .997.997 0 0 1-1-1v-1H17v1a.997.997 0 0 1-1 1 .997.997 0 0 1-1-1v-1H5v1a.997.997 0 0 1-1 1 .997.997 0 0 1-1-1v-2a.997.997 0 0 1 1-1h11v-2a3.004 3.004 0 0 1-3-3V7zm5 3a.997.997 0 0 0 1-1V7a.997.997 0 0 0-1-1h-2a.997.997 0 0 0-1 1v2a.997.997 0 0 0 1 1h2zM0 23a3.004 3.004 0 0 1 3-3h2a3.004 3.004 0 0 1 3 3v2a3.004 3.004 0 0 1-3 3H3a3.004 3.004 0 0 1-3-3v-2zm3-1a.997.997 0 0 0-1 1v2a.997.997 0 0 0 1 1h2a.997.997 0 0 0 1-1v-2a.997.997 0 0 0-1-1H3zm9 1a3.004 3.004 0 0 1 3-3h2a3.004 3.004 0 0 1 3 3v2a3.004 3.004 0 0 1-3 3h-2a3.004 3.004 0 0 1-3-3v-2zm3-1a.997.997 0 0 0-1 1v2a.997.997 0 0 0 1 1h2a.997.997 0 0 0 1-1v-2a.997.997 0 0 0-1-1h-2zm9 1a3.004 3.004 0 0 1 3-3h2a3.004 3.004 0 0 1 3 3v2a3.004 3.004 0 0 1-3 3h-2a3.004 3.004 0 0 1-3-3v-2zm3-1a.997.997 0 0 0-1 1v2a.997.997 0 0 0 1 1h2a.997.997 0 0 0 1-1v-2a.997.997 0 0 0-1-1h-2z"/></symbol><symbol id="icon-wind" viewBox="0 0 32 32"><path d="M25 4a5 5 0 0 0-5 5 .997.997 0 0 1-1 1 .997.997 0 0 1-1-1 6.994 6.994 0 0 1 4.322-6.467 6.998 6.998 0 0 1 9.544 5.102 7.006 7.006 0 0 1-2.976 7.186 6.994 6.994 0 0 1-3.889 1.18h-24a.997.997 0 0 1-1-1 .997.997 0 0 1 1-1h24a5 5 0 0 0 0-10zM11 6a2 2 0 0 0-2 2 .997.997 0 0 1-1 1 .997.997 0 0 1-1-1 4.004 4.004 0 0 1 2.469-3.695A4 4 0 1 1 11 12H1a.997.997 0 0 1-1-1 .997.997 0 0 1 1-1h10a2 2 0 0 0 0-4zM0 19a.997.997 0 0 1 1-1h20.084a5.998 5.998 0 0 1 4.242 10.243 5.996 5.996 0 0 1-6.539 1.301 5.999 5.999 0 0 1-3.704-5.543.997.997 0 0 1 1-1 .997.997 0 0 1 1 1 4.004 4.004 0 0 0 2.469 3.695 4 4 0 1 0 1.531-7.695H.999a.997.997 0 0 1-1-1z"/></symbol><symbol id="icon-tv" viewBox="0 0 32 32"><path d="M0 8s0-4 4-4h24s4 0 4 4v12s0 4-4 4h-8c0 1.333.167 2.333.5 3H22a.997.997 0 0 1 1 1 .997.997 0 0 1-1 1H10a.997.997 0 0 1-1-1 .997.997 0 0 1 1-1h1.5c.333-.667.5-1.667.5-3H4s-4 0-4-4V8zm2.796-1.71c-.22.153-.395.361-.508.604A3.013 3.013 0 0 0 2 8.02V20c0 .65.156 1.004.29 1.204.14.208.341.377.604.508.338.162.703.259 1.076.286l.05.002H28c.65 0 1.004-.156 1.204-.29.22-.153.395-.361.508-.604.162-.338.259-.703.286-1.076l.002-.05V8c0-.65-.156-1.004-.29-1.204a1.511 1.511 0 0 0-.604-.508A3.018 3.018 0 0 0 27.98 6H4c-.65 0-1.004.156-1.204.29z"/></symbol><symbol id="icon-people" viewBox="0 0 32 32"><path d="M30 28s2 0 2-2-2-8-10-8-10 6-10 8 2 2 2 2h16zm-15.956-2L14 25.992c.002-.528.334-2.06 1.52-3.44C16.624 21.258 18.564 20 22 20c3.434 0 5.374 1.26 6.48 2.552 1.186 1.38 1.516 2.914 1.52 3.44l-.016.004-.028.004H14.044zM22 14a4.003 4.003 0 0 0 4-4 4.001 4.001 0 0 0-6.828-2.828 4.001 4.001 0 0 0 0 5.656A4.001 4.001 0 0 0 22 14zm6-4a5.99 5.99 0 0 1-1.757 4.243A6.01 6.01 0 0 1 22 16.001a5.99 5.99 0 0 1-4.243-1.758A5.99 5.99 0 0 1 16 10a5.996 5.996 0 0 1 6-6 6.002 6.002 0 0 1 6 6zm-14.128 8.56c-.8-.25-1.625-.416-2.46-.494A13.873 13.873 0 0 0 10 18c-8 0-10 6-10 8 0 1.333.667 2 2 2h8.432A4.487 4.487 0 0 1 10 26c0-2.02.754-4.084 2.18-5.808a10.583 10.583 0 0 1 1.692-1.632zM9.84 20A11.003 11.003 0 0 0 8 26H2c0-.52.328-2.06 1.52-3.448 1.09-1.272 2.984-2.512 6.32-2.55V20zM3 11a5.996 5.996 0 0 1 6-6 5.996 5.996 0 0 1 6 6 5.996 5.996 0 0 1-6 6 5.996 5.996 0 0 1-6-6zm6-4a4.003 4.003 0 0 0-4 4 4.003 4.003 0 0 0 4 4 4.003 4.003 0 0 0 4-4 4.003 4.003 0 0 0-4-4z"/></symbol><symbol id="icon-list" viewBox="0 0 34 32"><path d="M15.556 3.778a1.114 1.114 0 0 1 1.111-1.111h15.556a1.114 1.114 0 0 1 1.111 1.111V6a1.114 1.114 0 0 1-1.111 1.111H16.667A1.114 1.114 0 0 1 15.556 6V3.778zM0 24.889a6.67 6.67 0 0 1 11.381-4.714A6.668 6.668 0 1 1 0 24.889zm15.556-3.333a1.114 1.114 0 0 1 1.111-1.112h15.556a1.11 1.11 0 0 1 1.111 1.112v2.222a1.114 1.114 0 0 1-1.111 1.112H16.667a1.11 1.11 0 0 1-1.111-1.112v-2.222zm0-11.112a1.114 1.114 0 0 1 1.111-1.111h11.111a1.114 1.114 0 0 1 1.112 1.111 1.11 1.11 0 0 1-1.112 1.111H16.667a1.114 1.114 0 0 1-1.111-1.111zm0 17.778a1.114 1.114 0 0 1 1.111-1.112h11.111a1.11 1.11 0 0 1 .786 1.898 1.109 1.109 0 0 1-.786.326H16.667a1.11 1.11 0 0 1-1.111-1.112zM6.667.444A6.668 6.668 0 0 0 .508 4.559a6.668 6.668 0 0 0 6.159 9.217 6.67 6.67 0 0 0 4.714-11.381A6.67 6.67 0 0 0 6.667.442zm0 10a3.333 3.333 0 1 1 0-6.667 3.333 3.333 0 0 1 0 6.667z"/></symbol><symbol id="icon-cafe" viewBox="0 0 32 32"><path d="M1 12a1.007 1.007 0 0 0-.779.374.997.997 0 0 0-.197.842l3.304 14.868A5.003 5.003 0 0 0 8.208 32h11.584a4.996 4.996 0 0 0 4.88-3.916l.262-1.18a6 6 0 0 0 2.601-11.708l.442-1.98c.032-.146.032-.298-.003-.443s-.1-.282-.194-.399a1.002 1.002 0 0 0-.779-.374h-26zm25 13a4.05 4.05 0 0 1-.632-.05l1.734-7.796A4.002 4.002 0 0 1 26 25zM5.28 27.65 2.246 14h23.508L22.72 27.65A2.995 2.995 0 0 1 19.792 30H8.208a2.998 2.998 0 0 1-2.928-2.35zM8.8 1.6l-.006.008-.028.038c-.146.2-.282.407-.408.62a4.003 4.003 0 0 0-.282.534c-.052.12-.068.184-.074.206v.008c.023.177.085.346.182.496.15.266.356.544.616.89l.02.024c.236.316.52.694.74 1.086.224.4.44.91.44 1.49 0 .376-.13.736-.238.988a6.075 6.075 0 0 1-.404.776 10.2 10.2 0 0 1-.506.764l-.036.05-.01.016-.004.004a1.004 1.004 0 0 1-1.4.202A1.004 1.004 0 0 1 7.2 8.4l.006-.008.028-.038c.146-.2.282-.407.408-.62.107-.171.202-.349.282-.534.052-.12.068-.184.074-.206a1.199 1.199 0 0 0-.18-.504A8.024 8.024 0 0 0 7.2 5.6l-.02-.024c-.27-.345-.517-.708-.74-1.086A3.066 3.066 0 0 1 6 3c0-.376.13-.736.238-.988.118-.276.268-.548.404-.776.159-.261.328-.516.506-.764l.05-.07A1.004 1.004 0 0 1 8.598.2 1.004 1.004 0 0 1 8.8 1.6zm6 0-.006.008-.028.038c-.146.2-.282.407-.408.62a4.003 4.003 0 0 0-.282.534c-.052.12-.068.184-.074.206v.008c.023.177.085.346.182.496.15.266.356.544.616.89l.02.024c.236.316.52.694.74 1.086.224.4.44.91.44 1.49 0 .376-.13.736-.238.988a6.075 6.075 0 0 1-.404.776 10.2 10.2 0 0 1-.506.764l-.036.05-.01.016-.004.004a1.004 1.004 0 0 1-1.4.202 1.004 1.004 0 0 1-.202-1.4l.006-.008.028-.038c.146-.2.282-.407.408-.62.107-.171.202-.349.282-.534.052-.12.068-.184.074-.206a1.199 1.199 0 0 0-.18-.504 8.024 8.024 0 0 0-.618-.89l-.02-.024c-.27-.345-.517-.708-.74-1.086A3.066 3.066 0 0 1 12 3c0-.376.13-.736.238-.988.118-.276.268-.548.404-.776.159-.261.328-.516.506-.764l.05-.07a1.004 1.004 0 0 1 1.4-.202 1.004 1.004 0 0 1 .202 1.4zm6 0-.006.008-.028.038c-.146.2-.282.407-.408.62a4.003 4.003 0 0 0-.282.534c-.052.12-.068.184-.074.206v.008c.023.177.085.346.182.496.15.266.356.544.616.89l.02.024c.236.316.52.694.74 1.086.224.4.44.91.44 1.49 0 .376-.13.736-.238.988a6.075 6.075 0 0 1-.404.776 9.875 9.875 0 0 1-.504.764l-.038.05-.01.016-.004.004a1.004 1.004 0 0 1-1.4.202 1.004 1.004 0 0 1-.202-1.4l.006-.008.028-.038c.146-.2.282-.407.408-.62.107-.171.202-.349.282-.534.052-.12.068-.184.074-.206a1.199 1.199 0 0 0-.18-.504 8.024 8.024 0 0 0-.618-.89l-.02-.024c-.27-.345-.517-.708-.74-1.086A3.066 3.066 0 0 1 18 3c0-.376.13-.736.238-.988.118-.276.268-.548.404-.776.159-.261.328-.516.506-.764l.05-.07a1.004 1.004 0 0 1 1.4-.202 1.004 1.004 0 0 1 .202 1.4z"/></symbol><symbol id="icon-gas" viewBox="0 0 32 32"><path d="M6 5a.997.997 0 0 1 1-1h10a.997.997 0 0 1 1 1v10a.997.997 0 0 1-1 1H7a.997.997 0 0 1-1-1V5z"/><path d="M2 4a4.003 4.003 0 0 1 4-4h12a4.003 4.003 0 0 1 4 4v16a4.003 4.003 0 0 1 4 4v1a.997.997 0 0 0 1 1 .997.997 0 0 0 1-1v-9h-1a.997.997 0 0 1-1-1V8.75a.997.997 0 0 1 1-1h2.99c-.022-.952-.106-1.788-.402-2.444a1.944 1.944 0 0 0-.788-.916C28.432 4.17 27.872 4 27 4a.997.997 0 0 1-1-1 .997.997 0 0 1 1-1c1.128-.003 2.069.221 2.824.672.766.456 1.268 1.102 1.588 1.814.59 1.31.588 2.93.588 4.162v6.35c0 .132-.025.262-.076.383s-.124.232-.217.325a.991.991 0 0 1-.708.293h-1v9a3.004 3.004 0 0 1-3 3 2.998 2.998 0 0 1-3-3v-1a2 2 0 0 0-2-2v8h1a.997.997 0 0 1 1 1 .997.997 0 0 1-1 1h-22a.997.997 0 0 1-1-1 .997.997 0 0 1 1-1h1v-26zm18 0a2 2 0 0 0-2-2H6a2 2 0 0 0-2 2v26h16V4z"/></symbol><symbol id="icon-logo" viewBox="0 0 272 32"><path fill="#475467" d="M270.786 14.375h-7.216a1.98 1.98 0 0 0-.47-1.151 2.637 2.637 0 0 0-1.064-.739c-.428-.18-.9-.27-1.422-.27-.672 0-1.25.123-1.732.369-.484.246-.72.597-.71 1.051-.01.322.128.62.412.895.292.275.856.488 1.69.639l4.432.795c2.234.407 3.896 1.094 4.986 2.06 1.098.956 1.652 2.24 1.662 3.849-.01 1.553-.474 2.902-1.392 4.048-.91 1.136-2.156 2.017-3.736 2.642-1.572.615-3.368.923-5.384.923-3.334 0-5.942-.682-7.826-2.045-1.876-1.364-2.922-3.163-3.14-5.398h7.784a2.24 2.24 0 0 0 1.022 1.605c.588.369 1.326.554 2.216.554.72 0 1.312-.123 1.776-.369.474-.246.716-.597.724-1.051-.008-.417-.218-.748-.624-.994-.398-.246-1.024-.445-1.876-.597l-3.862-.682c-2.226-.388-3.892-1.127-5-2.216s-1.658-2.491-1.648-4.205c-.01-1.515.388-2.798 1.192-3.849.814-1.061 1.974-1.866 3.48-2.415 1.516-.559 3.31-.838 5.384-.838 3.154 0 5.64.653 7.458 1.96 1.828 1.307 2.788 3.116 2.884 5.426zM232.83 23.92l.056-9.318h1.024l5.284-7.33H248l-8.864 11.42h-2.216l-4.09 5.227zm-7.046 5.171V0h7.842v29.091h-7.842zm13.466 0-5-8.636 5.114-5.568 8.864 14.205h-8.978zM211.238 29.489c-2.368 0-4.394-.469-6.08-1.406-1.686-.947-2.978-2.263-3.878-3.949-.9-1.695-1.349-3.66-1.349-5.895s.449-4.195 1.349-5.881a9.562 9.562 0 0 1 3.878-3.949c1.686-.947 3.712-1.42 6.08-1.42 2.14 0 3.992.388 5.554 1.165 1.572.767 2.788 1.856 3.65 3.267.862 1.402 1.298 3.049 1.308 4.943h-7.274c-.104-1.146-.436-2.017-.994-2.614-.55-.606-1.26-.909-2.13-.909-.682 0-1.28.199-1.79.597-.512.388-.91.98-1.194 1.776-.284.786-.426 1.776-.426 2.969s.142 2.188.426 2.983c.284.786.682 1.378 1.194 1.776.51.388 1.108.582 1.79.582.578 0 1.088-.133 1.534-.398.444-.275.804-.672 1.08-1.193.284-.53.454-1.174.51-1.932h7.274c-.03 1.922-.47 3.598-1.322 5.028-.852 1.42-2.06 2.519-3.622 3.295-1.554.777-3.41 1.165-5.568 1.165zM188.097 19.545V7.272h7.841V29.09h-7.443v-4.148h-.227c-.473 1.392-1.302 2.481-2.486 3.267-1.184.777-2.59 1.165-4.219 1.165-1.525 0-2.86-.35-4.006-1.051-1.136-.701-2.022-1.667-2.656-2.898-.625-1.231-.942-2.642-.952-4.233V7.271h7.841v12.273c.009 1.08.284 1.927.824 2.543.549.616 1.316.923 2.301.923.653 0 1.217-.137 1.69-.412a2.814 2.814 0 0 0 1.108-1.193c.265-.521.393-1.141.383-1.861zM155.806 29.091V7.273h7.614v4.148h.227c.398-1.534 1.027-2.656 1.889-3.366.871-.71 1.889-1.065 3.054-1.065.341 0 .677.028 1.009.085.341.047.668.118.98.213v6.69c-.388-.133-.866-.232-1.435-.298s-1.056-.099-1.463-.099c-.767 0-1.458.175-2.074.526a3.71 3.71 0 0 0-1.435 1.449c-.35.616-.526 1.34-.526 2.173v11.364h-7.841zM128.902 6.364V0h25.284v6.364h-8.75v22.727h-7.784V6.364h-8.75z" style="fill:var(--color2, #475467)"/><path fill="#101828" d="M125.016 0v29.091h-7.841V0h7.841zM102.493 29.489c-2.33 0-4.337-.445-6.023-1.335a9.355 9.355 0 0 1-3.878-3.864c-.9-1.686-1.349-3.703-1.349-6.051 0-2.254.455-4.223 1.364-5.909s2.192-2.997 3.849-3.935 3.613-1.406 5.867-1.406c1.648 0 3.139.256 4.474.767s2.476 1.255 3.423 2.23c.947.966 1.676 2.14 2.188 3.523s.767 2.94.767 4.673V20H93.686v-4.318h12.273c-.01-.625-.171-1.174-.483-1.648a3.074 3.074 0 0 0-1.236-1.122c-.511-.275-1.094-.412-1.747-.412-.634 0-1.217.137-1.747.412-.53.265-.956.634-1.278 1.108-.312.473-.478 1.027-.497 1.662v4.659c0 .701.147 1.326.44 1.875s.715.98 1.264 1.293c.549.312 1.212.469 1.989.469.54 0 1.032-.076 1.477-.227a3.34 3.34 0 0 0 1.165-.653c.322-.294.559-.644.71-1.051h7.159c-.246 1.515-.829 2.832-1.747 3.949-.918 1.108-2.135 1.97-3.651 2.585-1.506.606-3.267.909-5.284.909zM89.673 7.273l-7.329 21.818h-9.091l-7.33-21.818h8.239l3.523 14.432h.227l3.523-14.432h8.239zM50.112 29.432c-1.392 0-2.623-.227-3.693-.682-1.061-.464-1.894-1.165-2.5-2.102s-.909-2.131-.909-3.58c0-1.193.204-2.211.611-3.054.407-.852.975-1.548 1.705-2.088s1.577-.952 2.543-1.236a15.398 15.398 0 0 1 3.153-.554c1.222-.095 2.202-.208 2.94-.341.748-.142 1.288-.336 1.619-.582.331-.256.497-.592.497-1.009v-.057c0-.568-.218-1.004-.653-1.307s-.994-.455-1.676-.455c-.748 0-1.359.166-1.832.497-.464.322-.743.819-.838 1.491h-7.216a7.44 7.44 0 0 1 1.264-3.665c.758-1.127 1.861-2.027 3.31-2.699 1.449-.682 3.257-1.023 5.426-1.023 1.563 0 2.964.185 4.205.554 1.241.36 2.296.866 3.168 1.52.871.644 1.534 1.402 1.989 2.273a5.84 5.84 0 0 1 .696 2.813v14.943h-7.329v-3.068h-.171c-.436.814-.966 1.472-1.591 1.974a5.866 5.866 0 0 1-2.117 1.094c-.786.227-1.652.341-2.599.341zm2.557-4.943c.597 0 1.155-.123 1.676-.369.53-.246.961-.601 1.293-1.065s.497-1.027.497-1.69v-1.818a8.731 8.731 0 0 1-.668.241 13.888 13.888 0 0 1-1.563.398c-.284.057-.582.109-.895.156-.606.095-1.103.251-1.492.469-.379.208-.663.469-.852.781-.18.303-.27.644-.27 1.023 0 .606.213 1.07.639 1.392s.971.483 1.633.483zM26.904 29.091V7.273h7.614v4.148h.227c.398-1.534 1.027-2.656 1.889-3.366.871-.71 1.889-1.065 3.054-1.065.341 0 .677.028 1.009.085.341.047.668.118.98.213v6.69c-.388-.133-.866-.232-1.435-.298s-1.056-.099-1.463-.099c-.767 0-1.458.175-2.074.526a3.71 3.71 0 0 0-1.435 1.449c-.35.616-.526 1.34-.526 2.173v11.364h-7.841zM0 6.364V0h25.284v6.364h-8.75v22.727H8.75V6.364H0z" style="fill:var(--color3, #101828)"/></symbol></defs></svg>